<mxfile host="app.diagrams.net" modified="2023-12-02T12:06:55.281Z" agent="Mozilla/5.0 (Windows NT 10.0; Win64; x64) AppleWebKit/537.36 (KHTML, like Gecko) Chrome/119.0.0.0 Safari/537.36 Edg/119.0.0.0" etag="tqjoBq4gwlqX7l0YTVT2" version="22.1.5" type="github">
  <diagram name="第 1 页" id="FRvKm5lwS4Rhhj2kBkGg">
    <mxGraphModel dx="1246" dy="661" grid="1" gridSize="10" guides="1" tooltips="1" connect="1" arrows="1" fold="1" page="1" pageScale="1" pageWidth="827" pageHeight="1169" math="0" shadow="0">
      <root>
        <mxCell id="0" />
        <mxCell id="1" parent="0" />
        <mxCell id="xQd1zLAD4g_vqcQ5N1h_-2" value="" style="rounded=0;whiteSpace=wrap;html=1;" vertex="1" parent="1">
          <mxGeometry x="140" y="100" width="510" height="530" as="geometry" />
        </mxCell>
        <mxCell id="xQd1zLAD4g_vqcQ5N1h_-13" style="rounded=0;orthogonalLoop=1;jettySize=auto;html=1;exitX=0.5;exitY=0.5;exitDx=0;exitDy=0;exitPerimeter=0;" edge="1" parent="1" source="xQd1zLAD4g_vqcQ5N1h_-1" target="xQd1zLAD4g_vqcQ5N1h_-3">
          <mxGeometry relative="1" as="geometry" />
        </mxCell>
        <mxCell id="xQd1zLAD4g_vqcQ5N1h_-14" style="rounded=0;orthogonalLoop=1;jettySize=auto;html=1;exitX=0.5;exitY=0.5;exitDx=0;exitDy=0;exitPerimeter=0;" edge="1" parent="1" source="xQd1zLAD4g_vqcQ5N1h_-1" target="xQd1zLAD4g_vqcQ5N1h_-4">
          <mxGeometry relative="1" as="geometry" />
        </mxCell>
        <mxCell id="xQd1zLAD4g_vqcQ5N1h_-15" style="edgeStyle=none;rounded=0;orthogonalLoop=1;jettySize=auto;html=1;exitX=0.5;exitY=0.5;exitDx=0;exitDy=0;exitPerimeter=0;" edge="1" parent="1" source="xQd1zLAD4g_vqcQ5N1h_-1" target="xQd1zLAD4g_vqcQ5N1h_-5">
          <mxGeometry relative="1" as="geometry" />
        </mxCell>
        <mxCell id="xQd1zLAD4g_vqcQ5N1h_-16" style="edgeStyle=none;rounded=0;orthogonalLoop=1;jettySize=auto;html=1;exitX=0.5;exitY=0.5;exitDx=0;exitDy=0;exitPerimeter=0;" edge="1" parent="1" source="xQd1zLAD4g_vqcQ5N1h_-1" target="xQd1zLAD4g_vqcQ5N1h_-6">
          <mxGeometry relative="1" as="geometry" />
        </mxCell>
        <mxCell id="xQd1zLAD4g_vqcQ5N1h_-17" style="edgeStyle=none;rounded=0;orthogonalLoop=1;jettySize=auto;html=1;exitX=0.5;exitY=0.5;exitDx=0;exitDy=0;exitPerimeter=0;" edge="1" parent="1" source="xQd1zLAD4g_vqcQ5N1h_-1" target="xQd1zLAD4g_vqcQ5N1h_-7">
          <mxGeometry relative="1" as="geometry" />
        </mxCell>
        <mxCell id="xQd1zLAD4g_vqcQ5N1h_-19" style="edgeStyle=none;rounded=0;orthogonalLoop=1;jettySize=auto;html=1;exitX=0.5;exitY=0.5;exitDx=0;exitDy=0;exitPerimeter=0;" edge="1" parent="1" source="xQd1zLAD4g_vqcQ5N1h_-1" target="xQd1zLAD4g_vqcQ5N1h_-8">
          <mxGeometry relative="1" as="geometry" />
        </mxCell>
        <mxCell id="xQd1zLAD4g_vqcQ5N1h_-1" value="系统管理员" style="shape=umlActor;verticalLabelPosition=bottom;verticalAlign=top;html=1;" vertex="1" parent="1">
          <mxGeometry x="30" y="325" width="30" height="60" as="geometry" />
        </mxCell>
        <mxCell id="xQd1zLAD4g_vqcQ5N1h_-3" value="主控模块" style="ellipse;whiteSpace=wrap;html=1;" vertex="1" parent="1">
          <mxGeometry x="190" y="120" width="90" height="40" as="geometry" />
        </mxCell>
        <mxCell id="xQd1zLAD4g_vqcQ5N1h_-4" value="全局管理模块" style="ellipse;whiteSpace=wrap;html=1;" vertex="1" parent="1">
          <mxGeometry x="190" y="190" width="90" height="40" as="geometry" />
        </mxCell>
        <mxCell id="xQd1zLAD4g_vqcQ5N1h_-5" value="接口管理模块" style="ellipse;whiteSpace=wrap;html=1;" vertex="1" parent="1">
          <mxGeometry x="190" y="260" width="90" height="40" as="geometry" />
        </mxCell>
        <mxCell id="xQd1zLAD4g_vqcQ5N1h_-6" value="VLAN管理模块" style="ellipse;whiteSpace=wrap;html=1;" vertex="1" parent="1">
          <mxGeometry x="190" y="330" width="90" height="40" as="geometry" />
        </mxCell>
        <mxCell id="xQd1zLAD4g_vqcQ5N1h_-7" value="报文处理模块" style="ellipse;whiteSpace=wrap;html=1;" vertex="1" parent="1">
          <mxGeometry x="190" y="400" width="90" height="40" as="geometry" />
        </mxCell>
        <mxCell id="xQd1zLAD4g_vqcQ5N1h_-8" value="配置数据管理模块" style="ellipse;whiteSpace=wrap;html=1;" vertex="1" parent="1">
          <mxGeometry x="185" y="544.5" width="100" height="40" as="geometry" />
        </mxCell>
        <mxCell id="xQd1zLAD4g_vqcQ5N1h_-9" value="代理模块" style="ellipse;whiteSpace=wrap;html=1;" vertex="1" parent="1">
          <mxGeometry x="190" y="470" width="90" height="40" as="geometry" />
        </mxCell>
        <mxCell id="xQd1zLAD4g_vqcQ5N1h_-18" style="edgeStyle=none;rounded=0;orthogonalLoop=1;jettySize=auto;html=1;exitX=0.5;exitY=0.5;exitDx=0;exitDy=0;exitPerimeter=0;entryX=0.056;entryY=0.69;entryDx=0;entryDy=0;entryPerimeter=0;" edge="1" parent="1" source="xQd1zLAD4g_vqcQ5N1h_-1" target="xQd1zLAD4g_vqcQ5N1h_-9">
          <mxGeometry relative="1" as="geometry" />
        </mxCell>
        <mxCell id="xQd1zLAD4g_vqcQ5N1h_-20" value="命令行操作" style="ellipse;whiteSpace=wrap;html=1;" vertex="1" parent="1">
          <mxGeometry x="380" y="110" width="90" height="40" as="geometry" />
        </mxCell>
        <mxCell id="xQd1zLAD4g_vqcQ5N1h_-21" value="模块通信" style="ellipse;whiteSpace=wrap;html=1;" vertex="1" parent="1">
          <mxGeometry x="380" y="160" width="90" height="40" as="geometry" />
        </mxCell>
        <mxCell id="xQd1zLAD4g_vqcQ5N1h_-22" value="全局配置管理" style="ellipse;whiteSpace=wrap;html=1;" vertex="1" parent="1">
          <mxGeometry x="380" y="210" width="90" height="40" as="geometry" />
        </mxCell>
        <mxCell id="xQd1zLAD4g_vqcQ5N1h_-23" value="接口配置管理" style="ellipse;whiteSpace=wrap;html=1;" vertex="1" parent="1">
          <mxGeometry x="380" y="260" width="90" height="40" as="geometry" />
        </mxCell>
        <mxCell id="xQd1zLAD4g_vqcQ5N1h_-24" value="接口事件响应" style="ellipse;whiteSpace=wrap;html=1;" vertex="1" parent="1">
          <mxGeometry x="380" y="310" width="90" height="40" as="geometry" />
        </mxCell>
        <mxCell id="xQd1zLAD4g_vqcQ5N1h_-25" value="VLAN配置管理" style="ellipse;whiteSpace=wrap;html=1;" vertex="1" parent="1">
          <mxGeometry x="380" y="360" width="90" height="40" as="geometry" />
        </mxCell>
        <mxCell id="xQd1zLAD4g_vqcQ5N1h_-26" value="VLAN事件响应" style="ellipse;whiteSpace=wrap;html=1;" vertex="1" parent="1">
          <mxGeometry x="380" y="410" width="90" height="40" as="geometry" />
        </mxCell>
      </root>
    </mxGraphModel>
  </diagram>
</mxfile>
